HIERARCHY
ROOT hips
{
	OFFSET -0.003675 0.299928 -0.021708
	CHANNELS 6 Xposition Yposition Zposition Xrotation Yrotation Zrotation
	JOINT LowerBack
	{
		OFFSET 0.000919 0.177588 0.009275
		CHANNELS 3 Xrotation Yrotation Zrotation
		JOINT spine
		{
			OFFSET 0.000919 0.177588 0.009275
			CHANNELS 3 Xrotation Yrotation Zrotation
			JOINT chest
			{
				OFFSET 0.000456 0.100015 0.004638
				CHANNELS 3 Xrotation Yrotation Zrotation
				JOINT neck
				{
					OFFSET 0.000456 0.100015 0.004638
					CHANNELS 3 Xrotation Yrotation Zrotation
					JOINT head
					{
						OFFSET 0.000924 0.155147 0.009274
						CHANNELS 6 Xposition Yposition Zposition Xrotation Yrotation Zrotation
						End Site
						{
							OFFSET 0.000000 0.153400 0.000000
						}
					}
				}
				JOINT shoulder.L
				{
					OFFSET 0.019937 0.078966 0.057518
					CHANNELS 6 Xposition Yposition Zposition Yrotation Xrotation Zrotation
					JOINT upper_arm.L
					{
						OFFSET 0.177024 -0.020465 -0.095062
						CHANNELS 6 Xposition Yposition Zposition Xrotation Yrotation Zrotation
						JOINT forearm.L
						{
							OFFSET 0.247100 -0.135500 -0.061800
							CHANNELS 3 Xrotation Yrotation Zrotation
							JOINT hand.L
							{
								OFFSET 0.217000 -0.143000 0.039300
								CHANNELS 3 Xrotation Yrotation Zrotation
								JOINT palm.01.L
								{
									OFFSET 0.021770 -0.038291 0.012954
									CHANNELS 6 Xposition Yposition Zposition Yrotation Xrotation Zrotation
									JOINT f_index.01.L
									{
										OFFSET 0.053215 -0.044137 0.008236
										CHANNELS 3 Xrotation Yrotation Zrotation
										JOINT f_index.02.L
										{
											OFFSET 0.036108 -0.024723 -0.010656
											CHANNELS 3 Xrotation Yrotation Zrotation
											JOINT f_index.03.L
											{
												OFFSET 0.021342 -0.014948 -0.010846
												CHANNELS 3 Xrotation Yrotation Zrotation
												End Site
												{
													OFFSET 0.015600 -0.009860 -0.013421
												}
											}
										}
									}
									JOINT thumb.01.L
									{
										OFFSET -0.009090 -0.002348 -0.024223
										CHANNELS 6 Xposition Yposition Zposition Xrotation Yrotation Zrotation
										JOINT thumb.02.L
										{
											OFFSET 0.019713 -0.035076 -0.011120
											CHANNELS 3 Xrotation Yrotation Zrotation
											JOINT thumb.03.L
											{
												OFFSET 0.024877 -0.021748 -0.005176
												CHANNELS 3 Xrotation Yrotation Zrotation
												End Site
												{
													OFFSET 0.016125 -0.013029 -0.001569
												}
											}
										}
									}
								}
								JOINT palm.02.L
								{
									OFFSET 0.032823 -0.025104 0.012281
									CHANNELS 6 Xposition Yposition Zposition Yrotation Xrotation Zrotation
									JOINT f_middle.01.L
									{
										OFFSET 0.055723 -0.038469 0.008037
										CHANNELS 3 Xrotation Yrotation Zrotation
										JOINT f_middle.02.L
										{
											OFFSET 0.038167 -0.027473 -0.015582
											CHANNELS 3 Xrotation Yrotation Zrotation
											JOINT f_middle.03.L
											{
												OFFSET 0.021707 -0.016587 -0.017037
												CHANNELS 3 Xrotation Yrotation Zrotation
												End Site
												{
													OFFSET 0.014112 -0.010584 -0.014294
												}
											}
										}
									}
								}
								JOINT palm.03.L
								{
									OFFSET 0.039230 -0.011402 0.008390
									CHANNELS 6 Xposition Yposition Zposition Yrotation Xrotation Zrotation
									JOINT f_ring.01.L
									{
										OFFSET 0.061796 -0.031470 0.007910
										CHANNELS 3 Xrotation Yrotation Zrotation
										JOINT f_ring.02.L
										{
											OFFSET 0.033092 -0.023401 -0.019127
											CHANNELS 3 Xrotation Yrotation Zrotation
											JOINT f_ring.03.L
											{
												OFFSET 0.021392 -0.015362 -0.017824
												CHANNELS 3 Xrotation Yrotation Zrotation
												End Site
												{
													OFFSET 0.008670 -0.007297 -0.014686
												}
											}
										}
									}
								}
								JOINT palm.04.L
								{
									OFFSET 0.043417 0.002450 0.002889
									CHANNELS 6 Xposition Yposition Zposition Yrotation Xrotation Zrotation
									JOINT f_pinky.01.L
									{
										OFFSET 0.069986 -0.026156 0.003627
										CHANNELS 3 Xrotation Yrotation Zrotation
										JOINT f_pinky.02.L
										{
											OFFSET 0.018520 -0.012813 -0.016429
											CHANNELS 3 Xrotation Yrotation Zrotation
											JOINT f_pinky.03.L
											{
												OFFSET 0.013822 -0.009796 -0.014947
												CHANNELS 3 Xrotation Yrotation Zrotation
												End Site
												{
													OFFSET 0.007238 -0.006103 -0.011657
												}
											}
										}
									}
								}
							}
						}
					}
				}
				JOINT shoulder.R
				{
					OFFSET -0.016662 0.078957 0.057696
					CHANNELS 6 Xposition Yposition Zposition Yrotation Xrotation Zrotation
					JOINT upper_arm.R
					{
						OFFSET -0.176972 -0.020537 -0.095144
						CHANNELS 6 Xposition Yposition Zposition Xrotation Yrotation Zrotation
						JOINT forearm.R
						{
							OFFSET -0.247100 -0.135500 -0.061800
							CHANNELS 3 Xrotation Yrotation Zrotation
							JOINT hand.R
							{
								OFFSET -0.217000 -0.143000 0.039300
								CHANNELS 3 Xrotation Yrotation Zrotation
								JOINT palm.01.R
								{
									OFFSET -0.021773 -0.038278 0.012988
									CHANNELS 6 Xposition Yposition Zposition Yrotation Xrotation Zrotation
									JOINT f_index.01.R
									{
										OFFSET -0.053212 -0.044139 0.008249
										CHANNELS 3 Xrotation Yrotation Zrotation
										JOINT f_index.02.R
										{
											OFFSET -0.036049 -0.024835 -0.010634
											CHANNELS 3 Xrotation Yrotation Zrotation
											JOINT f_index.03.R
											{
												OFFSET -0.021371 -0.014881 -0.010866
												CHANNELS 3 Xrotation Yrotation Zrotation
												End Site
												{
													OFFSET -0.015584 -0.009883 -0.013422
												}
											}
										}
									}
									JOINT thumb.01.R
									{
										OFFSET 0.009113 -0.002381 -0.024211
										CHANNELS 6 Xposition Yposition Zposition Xrotation Yrotation Zrotation
										JOINT thumb.02.R
										{
											OFFSET -0.019694 -0.035097 -0.011088
											CHANNELS 3 Xrotation Yrotation Zrotation
											JOINT thumb.03.R
											{
												OFFSET -0.024867 -0.021762 -0.005168
												CHANNELS 3 Xrotation Yrotation Zrotation
												End Site
												{
													OFFSET -0.016120 -0.013036 -0.001565
												}
											}
										}
									}
								}
								JOINT palm.02.R
								{
									OFFSET -0.032828 -0.025095 0.012286
									CHANNELS 6 Xposition Yposition Zposition Yrotation Xrotation Zrotation
									JOINT f_middle.01.R
									{
										OFFSET -0.055721 -0.038472 0.008040
										CHANNELS 3 Xrotation Yrotation Zrotation
										JOINT f_middle.02.R
										{
											OFFSET -0.038101 -0.027593 -0.015557
											CHANNELS 3 Xrotation Yrotation Zrotation
											JOINT f_middle.03.R
											{
												OFFSET -0.021730 -0.016530 -0.017054
												CHANNELS 3 Xrotation Yrotation Zrotation
												End Site
												{
													OFFSET -0.014096 -0.010608 -0.014293
												}
											}
										}
									}
								}
								JOINT palm.03.R
								{
									OFFSET -0.039192 -0.011488 0.008390
									CHANNELS 6 Xposition Yposition Zposition Yrotation Xrotation Zrotation
									JOINT f_ring.01.R
									{
										OFFSET -0.061839 -0.031387 0.007876
										CHANNELS 3 Xrotation Yrotation Zrotation
										JOINT f_ring.02.R
										{
											OFFSET -0.033068 -0.023437 -0.019125
											CHANNELS 3 Xrotation Yrotation Zrotation
											JOINT f_ring.03.R
											{
												OFFSET -0.021371 -0.015393 -0.017822
												CHANNELS 3 Xrotation Yrotation Zrotation
												End Site
												{
													OFFSET -0.008654 -0.007321 -0.014684
												}
											}
										}
									}
								}
								JOINT palm.04.R
								{
									OFFSET -0.043421 0.002443 0.002845
									CHANNELS 6 Xposition Yposition Zposition Yrotation Xrotation Zrotation
									JOINT f_pinky.01.R
									{
										OFFSET -0.069983 -0.026169 0.003599
										CHANNELS 3 Xrotation Yrotation Zrotation
										JOINT f_pinky.02.R
										{
											OFFSET -0.018501 -0.012842 -0.016428
											CHANNELS 3 Xrotation Yrotation Zrotation
											JOINT f_pinky.03.R
											{
												OFFSET -0.013806 -0.009821 -0.014946
												CHANNELS 3 Xrotation Yrotation Zrotation
												End Site
												{
													OFFSET -0.007226 -0.006121 -0.011655
												}
											}
										}
									}
								}
							}
						}
					}
				}
			}
		}
	}
	JOINT pelvis.L
	{
		OFFSET 0.000000 0.000000 0.000000
		CHANNELS 6 Xposition Yposition Zposition Xrotation Yrotation Zrotation
		JOINT thigh.L
		{
			OFFSET 0.101675 0.001054 -0.000000
			CHANNELS 3 Xrotation Yrotation Zrotation
			JOINT shin.L
			{
				OFFSET 0.000000 -0.534800 0.041000
				CHANNELS 3 Xrotation Yrotation Zrotation
				JOINT foot.L
				{
					OFFSET 0.000000 -0.452000 -0.044800
					CHANNELS 3 Xrotation Yrotation Zrotation
					JOINT toe.L
					{
						OFFSET -0.000000 -0.068500 0.109600
						CHANNELS 3 Xrotation Yrotation Zrotation
						End Site
						{
							OFFSET -0.000000 0.000000 0.067200
						}
					}
				}
				JOINT heel.L
				{
					OFFSET 0.000000 -0.452000 -0.044800
					CHANNELS 3 Xrotation Yrotation Zrotation
					JOINT heel.02.L
					{
						OFFSET -0.038000 -0.085200 0.016200
						CHANNELS 6 Xposition Yposition Zposition Xrotation Yrotation Zrotation
						End Site
						{
							OFFSET 0.080000 -0.000000 0.000000
						}
					}
				}
			}
		}
	}
	JOINT pelvis.R
	{
		OFFSET 0.000000 0.000000 0.000000
		CHANNELS 6 Xposition Yposition Zposition Xrotation Yrotation Zrotation
		JOINT thigh.R
		{
			OFFSET -0.094325 0.001054 0.000000
			CHANNELS 3 Xrotation Yrotation Zrotation
			JOINT shin.R
			{
				OFFSET 0.000000 -0.534800 0.041000
				CHANNELS 3 Xrotation Yrotation Zrotation
				JOINT foot.R
				{
					OFFSET 0.000000 -0.452000 -0.044800
					CHANNELS 3 Xrotation Yrotation Zrotation
					JOINT toe.R
					{
						OFFSET -0.000000 -0.068500 0.109600
						CHANNELS 3 Xrotation Yrotation Zrotation
						End Site
						{
							OFFSET -0.000000 0.000000 0.067200
						}
					}
				}
				JOINT heel.R
				{
					OFFSET 0.000000 -0.452000 -0.044800
					CHANNELS 3 Xrotation Yrotation Zrotation
					JOINT heel.02.R
					{
						OFFSET 0.038000 -0.085200 0.016200
						CHANNELS 6 Xposition Yposition Zposition Xrotation Yrotation Zrotation
						End Site
						{
							OFFSET -0.080000 0.000000 -0.000000
						}
					}
				}
			}
		}
	}
}
MOTION
Frames: 4
Frame Time: 0.041667
-0.001757 0.226239 -0.005350 154.333520 366.221711 -11.383986 0.000005 -0.000000 0.000001 -0.000003 -0.000000 0.000001 0.000000 0.000000 -0.000000 -0.000000 -0.000001 -0.000000 0.000924 0.155147 0.009274 4.212441 -0.005879 -8.507053 0.019937 0.078966 0.057518 -5.699328 10.202940 52.232492 0.177024 -0.020465 -0.095062 -4.583779 320.167303 22.269811 -3.137124 21.183229 39.718250 -0.000004 0.000003 0.000001 0.021770 -0.038291 0.012954 0.000002 -0.000002 -0.000004 0.000001 0.000000 -0.000000 -0.000000 -0.000004 0.000010 0.000003 0.000005 -0.000003 -0.009090 -0.002348 -0.024223 0.000003 0.000000 -0.000001 0.000001 0.000003 0.000003 0.000000 -0.000001 0.000003 0.032823 -0.025104 0.012281 -0.000000 -0.000000 0.000005 -0.000001 0.000002 -0.000002 0.000001 0.000001 -0.000002 -0.000000 0.000003 0.000003 0.039230 -0.011402 0.008390 0.000002 -0.000001 0.000003 0.000002 -0.000002 -0.000000 0.000001 0.000008 -0.000000 0.000004 -0.000000 0.000002 0.043417 0.002450 0.002889 -0.000000 0.000001 -0.000000 0.000003 -0.000003 -0.000000 -0.000003 0.000004 -0.000003 -0.000001 -0.000003 -0.000001 -0.016662 0.078957 0.057696 -8.945208 10.404926 -46.684818 -0.176972 -0.020537 -0.095144 0.640295 26.694362 -25.554719 -1.244750 5.441844 322.971068 -0.000001 0.000003 -0.000000 -0.021773 -0.038278 0.012988 0.000003 -0.000004 -0.000003 -0.000000 0.000004 0.000001 -0.000000 -0.000002 -0.000005 -0.000001 -0.000002 -0.000001 0.009113 -0.002381 -0.024211 0.000002 0.000000 -0.000004 -0.000001 -0.000001 0.000000 -0.000001 -0.000002 -0.000001 -0.032828 -0.025095 0.012286 0.000001 -0.000001 -0.000001 0.000001 0.000004 0.000004 -0.000001 0.000000 -0.000002 0.000001 0.000001 -0.000006 -0.039192 -0.011488 0.008390 0.000001 -0.000002 -0.000000 -0.000001 0.000004 -0.000005 0.000003 -0.000004 0.000002 -0.000002 -0.000005 -0.000000 -0.043421 0.002443 0.002845 -0.000000 -0.000001 -0.000001 -0.000001 0.000003 -0.000004 -0.000002 -0.000003 -0.000003 0.000002 0.000003 0.000003 -0.000000 0.000000 -0.000000 -1.225609 -0.540708 6.255285 -12.057296 -0.488879 -5.317497 -10.970011 0.261497 -2.636861 -0.000002 -0.000001 0.000000 0.000000 -0.000000 -0.000001 0.000000 -0.000001 -0.000000 -0.038000 -0.085200 0.016200 -0.000004 -0.000001 -0.000000 0.000000 0.000000 -0.000000 -1.213718 -0.539276 7.489576 -13.274712 -0.750296 -11.224068 -8.393743 -0.010029 0.101902 0.000000 -0.000000 0.000000 0.000003 0.000001 -0.000001 0.000002 -0.000001 0.000000 0.038000 -0.085200 0.016200 -0.000002 -0.000000 -0.000000 
-0.001521 0.217467 -0.006061 156.266259 363.361228 -15.211081 0.000001 0.000000 0.000001 -0.000003 -0.000000 0.000001 -0.000002 -0.000001 0.000001 -0.000002 -0.000000 -0.000000 0.000924 0.155148 0.009274 -9.704899 0.029333 -6.210776 0.019937 0.078966 0.057518 -16.450451 10.499946 58.334631 0.177024 -0.020465 -0.095062 2.742920 331.011458 28.860804 -1.881457 27.845633 36.518925 0.000003 -0.000000 0.000003 0.021770 -0.038291 0.012954 0.000001 0.000003 -0.000001 -0.000004 0.000003 0.000003 -0.000005 -0.000002 0.000008 -0.000002 0.000002 0.000002 -0.009090 -0.002348 -0.024224 -0.000003 0.000001 0.000003 -0.000000 -0.000002 -0.000002 0.000000 0.000001 -0.000002 0.032823 -0.025104 0.012281 -0.000001 0.000002 0.000005 -0.000003 -0.000003 -0.000004 -0.000001 0.000002 0.000004 -0.000001 0.000001 0.000001 0.039230 -0.011402 0.008390 0.000003 0.000003 0.000002 -0.000000 0.000002 0.000001 -0.000003 -0.000003 0.000003 0.000002 0.000002 0.000003 0.043417 0.002450 0.002889 0.000001 -0.000000 -0.000002 -0.000002 -0.000002 -0.000004 -0.000000 0.000002 0.000000 -0.000002 -0.000000 -0.000005 -0.016662 0.078957 0.057696 -15.542271 10.295197 -45.128412 -0.176972 -0.020537 -0.095144 6.261621 20.907342 -33.038349 -1.084959 2.397030 326.346657 -0.000000 0.000002 0.000005 -0.021773 -0.038278 0.012988 0.000000 -0.000000 0.000000 -0.000003 0.000004 -0.000001 -0.000001 0.000003 -0.000007 0.000001 0.000000 0.000001 0.009114 -0.002381 -0.024212 -0.000001 0.000001 -0.000001 0.000001 -0.000002 0.000000 0.000000 -0.000000 0.000003 -0.032829 -0.025095 0.012286 0.000002 0.000002 -0.000001 0.000001 0.000001 -0.000003 0.000001 0.000001 0.000001 -0.000001 0.000000 -0.000000 -0.039192 -0.011488 0.008390 -0.000000 0.000003 0.000001 0.000002 0.000001 -0.000002 -0.000000 -0.000003 -0.000002 -0.000001 0.000003 0.000001 -0.043421 0.002443 0.002845 0.000001 0.000001 -0.000001 -0.000003 0.000002 -0.000001 0.000001 -0.000003 0.000000 -0.000001 -0.000002 0.000002 -0.000000 0.000000 0.000000 -1.364293 -0.807654 9.469290 -11.970163 -0.368676 -3.747674 -9.037882 0.184599 -1.860471 -0.000003 -0.000001 0.000001 -0.000002 0.000000 -0.000000 -0.000003 -0.000001 -0.000000 -0.038000 -0.085200 0.016200 0.000001 0.000000 0.000001 -0.000000 0.000000 0.000000 -1.357349 -0.806422 10.703576 -10.447539 -1.040643 -14.894336 -8.161858 0.192638 -1.943299 0.000000 -0.000000 0.000000 -0.000000 0.000002 -0.000001 0.000007 -0.000000 -0.000001 0.038000 -0.085200 0.016200 0.000001 0.000001 0.000000 
-0.000476 0.215379 -0.005853 150.932141 363.399750 -21.374186 0.000001 -0.000000 0.000001 0.000002 -0.000000 0.000000 -0.000003 0.000001 -0.000001 -0.000002 0.000000 -0.000004 0.000924 0.155148 0.009274 1.242059 -0.000863 -9.340245 0.019937 0.078966 0.057518 -11.440725 9.373192 56.153379 0.177024 -0.020465 -0.095062 -0.026384 319.008903 27.701581 -1.990522 25.262402 37.902875 0.000002 0.000000 -0.000002 0.021770 -0.038291 0.012954 0.000002 0.000001 -0.000001 -0.000000 -0.000002 0.000001 0.000002 -0.000000 0.000010 0.000003 -0.000004 -0.000003 -0.009090 -0.002348 -0.024223 -0.000003 -0.000002 -0.000003 -0.000000 0.000003 0.000003 -0.000002 0.000002 0.000001 0.032823 -0.025104 0.012281 0.000002 0.000000 0.000004 -0.000003 0.000003 -0.000005 -0.000000 0.000000 0.000001 -0.000001 -0.000003 0.000003 0.039230 -0.011402 0.008390 0.000003 0.000001 0.000003 -0.000004 0.000000 -0.000000 0.000004 0.000002 0.000005 -0.000003 -0.000000 0.000002 0.043417 0.002449 0.002889 0.000003 -0.000002 -0.000003 -0.000002 -0.000003 0.000001 0.000006 -0.000001 0.000003 0.000001 0.000001 -0.000002 -0.016662 0.078957 0.057696 -16.728732 10.180276 -46.965590 -0.176972 -0.020537 -0.095144 10.001091 25.416271 -38.363209 -0.550223 1.964995 319.920924 0.000002 -0.000001 0.000000 -0.021773 -0.038278 0.012988 0.000001 -0.000000 -0.000003 -0.000004 0.000002 0.000001 -0.000003 -0.000000 -0.000005 -0.000004 -0.000000 -0.000003 0.009114 -0.002381 -0.024212 0.000000 -0.000002 -0.000001 0.000001 -0.000003 0.000000 -0.000000 0.000000 -0.000008 -0.032828 -0.025095 0.012286 0.000002 0.000002 -0.000003 -0.000000 0.000002 -0.000001 -0.000000 0.000001 -0.000002 -0.000004 0.000009 -0.000002 -0.039192 -0.011488 0.008390 0.000000 0.000002 -0.000002 0.000001 0.000003 -0.000002 0.000002 -0.000002 -0.000000 -0.000003 -0.000000 0.000002 -0.043421 0.002442 0.002845 -0.000001 0.000002 0.000002 -0.000007 0.000004 0.000003 -0.000003 0.000003 0.000003 -0.000002 0.000005 -0.000002 -0.000000 0.000000 -0.000000 -1.461799 -1.019061 11.865556 -12.398051 -0.611250 -6.905378 -9.224309 0.078235 -0.787079 0.000002 -0.000001 -0.000002 -0.000001 0.000000 -0.000004 -0.000002 -0.000002 -0.000001 -0.038000 -0.085200 0.016200 0.000003 0.000000 -0.000000 0.000000 0.000000 -0.000000 -1.459329 -1.018518 13.099777 -11.100891 -0.804255 -11.775112 -4.120817 0.098951 -0.997836 0.000000 0.000001 -0.000001 0.000002 0.000000 -0.000001 0.000007 0.000002 -0.000000 0.038000 -0.085200 0.016200 0.000001 0.000000 -0.000001 
-0.000558 0.210889 -0.014095 156.183053 363.727873 -26.222517 -0.000001 -0.000001 0.000001 -0.000005 0.000000 0.000000 -0.000001 -0.000000 0.000001 -0.000000 0.000000 0.000003 0.000924 0.155147 0.009274 19.232740 -0.027465 12.310402 0.019937 0.078966 0.057518 -24.341642 12.056863 80.282023 0.177024 -0.020465 -0.095062 3.293228 325.770271 30.349549 7.453563 43.165453 20.260385 -0.000003 0.000000 -0.000001 0.021770 -0.038291 0.012954 0.000001 0.000003 0.000001 -0.000000 0.000001 0.000003 -0.000000 -0.000004 0.000004 -0.000002 0.000004 -0.000000 -0.009090 -0.002348 -0.024223 -0.000000 -0.000002 0.000004 0.000000 0.000000 -0.000004 -0.000005 -0.000002 0.000001 0.032823 -0.025104 0.012281 -0.000002 0.000005 0.000005 0.000003 -0.000002 -0.000002 -0.000001 -0.000001 0.000003 0.000003 -0.000000 0.000000 0.039230 -0.011402 0.008390 0.000001 0.000000 0.000003 0.000004 0.000006 -0.000000 -0.000001 -0.000001 -0.000002 0.000007 -0.000005 0.000005 0.043417 0.002450 0.002889 -0.000001 0.000003 0.000002 -0.000001 -0.000003 -0.000000 0.000002 -0.000001 -0.000001 -0.000005 -0.000001 -0.000001 -0.016662 0.078957 0.057696 -55.992047 20.335848 -43.664013 -0.176972 -0.020537 -0.095144 15.962022 -15.706794 -78.248054 0.984635 -33.246523 330.630388 0.000001 -0.000001 0.000001 -0.021773 -0.038278 0.012988 0.000001 0.000001 -0.000003 -0.000000 -0.000000 0.000002 -0.000001 0.000001 -0.000009 -0.000001 -0.000001 0.000006 0.009114 -0.002381 -0.024212 -0.000002 0.000000 -0.000003 -0.000004 0.000001 0.000000 0.000000 0.000003 -0.000006 -0.032828 -0.025095 0.012286 0.000001 0.000001 -0.000001 -0.000000 0.000002 0.000001 0.000000 0.000001 0.000001 -0.000001 0.000003 -0.000002 -0.039192 -0.011488 0.008390 0.000001 0.000003 -0.000000 0.000004 0.000004 -0.000002 0.000002 -0.000001 -0.000002 -0.000001 0.000000 -0.000001 -0.043421 0.002442 0.002844 -0.000001 0.000003 -0.000003 -0.000003 0.000005 0.000001 -0.000001 -0.000006 0.000005 -0.000000 0.000005 0.000001 0.000000 -0.000000 -0.000000 -1.505870 -0.987965 11.368739 -13.474034 -2.112498 -27.534659 -4.696580 0.362080 -3.653411 0.000000 -0.000002 0.000001 -0.000001 -0.000001 -0.000001 0.000005 -0.000001 0.000003 -0.038000 -0.085200 0.016200 0.000006 0.000001 0.000000 0.000000 0.000000 -0.000000 -1.501993 -0.987139 12.602992 -5.050940 0.155121 1.292538 11.481272 1.642825 -16.819506 0.000000 0.000000 0.000001 0.000003 0.000000 0.000001 0.000005 -0.000001 0.000001 0.038000 -0.085200 0.016200 -0.000001 0.000001 0.000001 
